<svg id="Capa_1" enable-background="new 0 0 513.089 513.089" height="100" viewBox="0 0 513.089 513.089" width="100" xmlns="http://www.w3.org/2000/svg"><g id="XMLID_72_"><path id="XMLID_146_" d="m194.301 417.619h159.679l8.718 35.115h30.91l-32.333-130.233c-8.731 4.973-18.151 8.848-28.07 11.438l13.327 53.679h-144.858l13.168-53.575c-9.928-2.553-19.362-6.388-28.109-11.327l-31.955 130.017h30.893z"/><path id="XMLID_162_" d="m120.193 483.089h89.913v30h-89.913z"/><path id="XMLID_166_" d="m341.382 483.089h89.913v30h-89.913z"/><path id="XMLID_168_" d="m352.914 201.371v-2.984c0-20.005-16.275-36.281-36.281-36.281h-82.917c-20.005 0-36.281 16.275-36.281 36.281v2.984z"/><path id="XMLID_173_" d="m243.854 307.705h59.921c43.807 0 80.665-32.82 85.725-76.334h-231.371c5.06 43.514 41.917 76.334 85.725 76.334z"/><path id="XMLID_174_" d="m158.129 231.371v-30-201.371c-43.514 5.06-76.334 41.918-76.334 85.725v59.921c0 32.422 17.988 61.021 44.973 75.757 9.475 5.174 20.052 8.653 31.361 9.968z"/><path id="XMLID_175_" d="m235.786 103.324v15h30v-15c0-15.407-7.87-23.687-13.077-29.165-4.155-4.371-4.822-5.305-4.822-8.497s.667-4.125 4.822-8.497c5.207-5.479 13.077-13.758 13.077-29.165v-15h-30v15c0 3.191-.667 4.125-4.821 8.497-5.208 5.479-13.077 13.758-13.077 29.165s7.87 23.686 13.077 29.165c4.154 4.371 4.821 5.305 4.821 8.497z"/><path id="XMLID_176_" d="m303.231 103.324v15h30v-15c0-15.407-7.869-23.687-13.077-29.165-4.154-4.371-4.821-5.305-4.821-8.497s.667-4.125 4.821-8.497c5.208-5.479 13.077-13.758 13.077-29.165v-15h-30v15c0 3.191-.667 4.125-4.821 8.497-5.208 5.479-13.077 13.758-13.077 29.165s7.869 23.686 13.077 29.165c4.154 4.371 4.821 5.305 4.821 8.497z"/></g></svg>